<?xml version="1.0" ?><svg style="enable-background:new 0 0 128 128;" version="1.1" viewBox="0 0 128 128" xml:space="preserve" xmlns="http://www.w3.org/2000/svg" xmlns:xlink="http://www.w3.org/1999/xlink"><style type="text/css">
	.st0{fill:#11111F;}
	.st1{fill:#EC3827;}
	.st2{fill:#FF7800;}
	.st3{fill:#FFA700;}
	.st4{fill:#0FAF42;}
	.st5{fill:#009EE2;}
	.st6{fill:#4C40A4;}
	.st7{fill:#BF36A7;}
	.st8{fill:#953C00;}
	.st9{fill:#9F0B00;}
	.st10{fill:#8F5100;}
	.st11{fill:#045419;}
	.st12{fill:#064572;}
	.st13{fill:#1B154C;}
	.st14{fill:#640D5E;}
	.st15{fill:#FFFFFF;}
</style><g id="Background"/><g id="Outlined"><path class="st7" d="M106.8,85.4c-1.4-3.4-2.2-7.1-2.3-11.3c0,0,0-0.2,0-0.3c-0.1-1.3-0.3-2.6-0.7-3.8c0,0,0-0.1,0-0.1   c-0.1-0.4-0.2-0.7-0.4-1.1c0.7-1,1.5-1.8,2.2-2.5l0.7-0.6c0.5-0.4,0.8-1.1,0.8-1.7c0-0.7-0.3-1.3-0.8-1.7l-0.7-0.7   c-0.8-0.7-1.5-1.5-2.2-2.5c0.1-0.3,0.3-0.7,0.4-1c0.4-1.2,0.7-2.6,0.7-4.2c0.1-4.3,0.8-8,2.3-11.4l0.6-1.4c0.3-0.7,0.2-1.5-0.1-2.1   c-0.4-0.6-1-1.1-1.8-1.2l-1.5-0.2c-3.6-0.4-7.2-1.7-10.9-3.7c-0.1,0-0.1-0.1-0.2-0.1c-1.2-0.6-2.5-1.1-3.8-1.4c-0.1,0-0.2,0-0.2,0   c-0.6-1.3-1.1-2.6-1.3-3.7l-0.2-0.9c-0.1-0.7-0.6-1.2-1.2-1.6c-0.6-0.3-1.3-0.4-1.9-0.2l-0.8,0.3c-1.3,0.4-2.7,0.6-4.2,0.7   c-0.2-0.2-0.3-0.4-0.5-0.6c-0.9-1-1.9-1.8-3-2.5c-0.1,0-0.1-0.1-0.2-0.1c-3.6-2.2-6.6-4.8-8.7-7.7l-0.9-1.2c-0.9-1.2-2.9-1.2-3.8,0   l-0.9,1.2c-2.2,2.9-5.1,5.5-8.7,7.7c0,0-0.1,0.1-0.1,0.1l0,0c-1.1,0.7-2.1,1.5-3.1,2.6c-0.1,0.2-0.3,0.3-0.4,0.5   c-1.3-0.1-2.4-0.3-3.4-0.6L44.6,26c-0.6-0.2-1.3-0.2-1.9,0.2c-0.6,0.3-1,0.9-1.2,1.5l-0.2,1c-0.2,1.1-0.6,2.2-1.3,3.5   c-0.4,0.1-0.7,0.1-1.1,0.2c-1.3,0.3-2.5,0.7-3.8,1.4c-0.1,0-0.1,0.1-0.2,0.1c-3.8,2-7.3,3.2-10.9,3.7l-1.5,0.2   c-0.7,0.1-1.4,0.5-1.8,1.2c-0.4,0.6-0.4,1.4-0.1,2.1l0.6,1.4c1.4,3.4,2.2,7.1,2.3,11.3c0,0,0,0.2,0,0.3c0.1,1.4,0.3,2.8,0.7,3.9   c0.1,0.3,0.2,0.7,0.4,1c-0.7,1-1.5,1.9-2.3,2.6l-0.7,0.6c-0.5,0.4-0.8,1.1-0.8,1.7c0,0.7,0.3,1.3,0.8,1.7l0.7,0.7   c0.8,0.7,1.5,1.5,2.2,2.6c-0.1,0.3-0.2,0.6-0.4,1c0,0,0,0.1,0,0.2c-0.4,1.2-0.6,2.5-0.7,4c-0.1,4.3-0.8,8-2.3,11.4l-0.6,1.4   c-0.3,0.7-0.2,1.5,0.1,2.1c0.4,0.6,1,1.1,1.8,1.2l1.5,0.2c3.6,0.4,7.2,1.7,10.9,3.7c0.1,0,0.1,0.1,0.2,0.1c1.2,0.6,2.5,1.1,3.7,1.4   c0.4,0.1,0.7,0.2,1.1,0.2c0.6,1.3,1,2.4,1.3,3.6l0.2,0.9c0.2,0.7,0.6,1.2,1.2,1.5c0.4,0.2,0.7,0.3,1.1,0.3c0.3,0,0.5,0,0.8-0.1   l0.8-0.3c1-0.3,2.2-0.5,3.5-0.6c0.1,0.2,0.3,0.3,0.4,0.5c0.9,1,1.9,1.8,3,2.5c0.1,0,0.1,0.1,0.2,0.1c3.6,2.2,6.6,4.8,8.7,7.7   l0.9,1.2c0.5,0.6,1.2,0.9,1.9,0.9c0.7,0,1.4-0.3,1.9-0.9l0.9-1.2c2.2-2.9,5.1-5.5,8.7-7.7c0,0,0.1-0.1,0.1-0.1l0,0   c1.1-0.7,2.1-1.5,3.1-2.6c0.2-0.2,0.3-0.3,0.4-0.5c1.6,0.1,2.9,0.3,4.1,0.7l0.9,0.3c0.3,0.1,0.5,0.1,0.8,0.1c0.4,0,0.8-0.1,1.2-0.3   c0.6-0.3,1-0.9,1.2-1.6l0.2-0.9c0.3-1.2,0.7-2.4,1.3-3.7c0.1,0,0.1,0,0.2,0c1.3-0.3,2.5-0.7,3.8-1.4c0.1,0,0.1-0.1,0.2-0.1   c3.8-2,7.3-3.2,10.9-3.7l1.5-0.2c0.7-0.1,1.4-0.5,1.8-1.2c0.4-0.6,0.4-1.4,0.1-2.1L106.8,85.4z M78.1,31.8c0.2,0,0.4,0,0.7,0l0.3,0   c1.5-0.1,2.9-0.2,4.2-0.5c0.4,1.2,0.9,2.5,1.6,3.9c0,0,0.1,0.2,0.1,0.2c0.1,0.1,0.1,0.3,0.2,0.4c0.2,0.5,0.5,0.9,0.8,1.3   c0.9,1.6,1.5,2.7,1.4,4c0,0,0,0,0,0c0,0.5-0.1,1.1-0.3,1.5c-0.1,0-0.1-0.1-0.2-0.1c-1.8-1-3.8-2.2-6.3-2.2c-0.1,0-0.2,0-0.3,0   c-0.2,0-0.5,0-0.8,0.1c0,0,0,0,0,0c-0.8,0.1-1.6,0.3-2.3,0.5c-0.1-0.7-0.3-1.4-0.6-2.1c-0.1-0.3-0.2-0.6-0.4-0.8   c-1.2-2.2-3-3.3-4.7-4.3c0.3-0.4,0.7-0.8,1.2-1C74.1,31.7,75.9,31.9,78.1,31.8z M80.7,64.1c0,0.1,0,0.2,0,0.3   c-0.1,5.7-3.2,11.1-8.2,14l0,0c0,0-0.1,0-0.1,0c-0.1,0-0.2,0.1-0.3,0.2c-5,2.8-11.2,2.8-16.2,0c-0.1,0-0.1-0.1-0.2-0.1c0,0,0,0,0,0   c0,0,0,0,0,0c0,0,0,0,0,0c-0.1-0.1-0.2-0.1-0.3-0.1c-0.2-0.1-0.4-0.2-0.6-0.4c-0.1-0.1-0.2-0.1-0.3-0.2c-0.2-0.1-0.4-0.3-0.5-0.4   c-0.1-0.1-0.2-0.1-0.3-0.2c-0.2-0.1-0.4-0.3-0.5-0.4c-0.1-0.1-0.2-0.1-0.3-0.2c-0.2-0.2-0.3-0.3-0.5-0.5c-0.1-0.1-0.2-0.1-0.2-0.2   c-0.2-0.2-0.3-0.4-0.5-0.6c-0.1-0.1-0.1-0.1-0.2-0.2c-0.2-0.2-0.3-0.4-0.5-0.6c-0.1-0.1-0.1-0.1-0.2-0.2c-0.2-0.2-0.3-0.4-0.5-0.6   c0-0.1-0.1-0.1-0.2-0.2c-0.1-0.2-0.3-0.4-0.4-0.7c0-0.1-0.1-0.1-0.1-0.2c-0.1-0.2-0.2-0.4-0.4-0.7c0-0.1-0.1-0.2-0.1-0.3   c-0.1-0.2-0.2-0.4-0.3-0.7c0-0.1-0.1-0.2-0.1-0.3c-0.1-0.2-0.2-0.5-0.3-0.7c0-0.1-0.1-0.2-0.1-0.3c-0.1-0.2-0.1-0.4-0.2-0.7   c0-0.1-0.1-0.2-0.1-0.3c-0.1-0.2-0.1-0.4-0.2-0.7c0-0.1-0.1-0.2-0.1-0.4c0-0.2-0.1-0.4-0.1-0.7c0-0.1,0-0.2-0.1-0.4   c0-0.2-0.1-0.4-0.1-0.6c0-0.1,0-0.3,0-0.4c0-0.4,0-0.7-0.1-1.1c0-0.1,0-0.2,0-0.3v-0.2c0-0.1,0-0.2,0-0.3c0-0.4,0-0.7,0.1-1.1   c0-0.1,0-0.1,0-0.2c0-0.3,0.1-0.6,0.1-0.9c0-0.1,0-0.1,0-0.2c0-0.3,0.1-0.6,0.2-0.8c0-0.1,0-0.2,0.1-0.2c0.1-0.3,0.1-0.5,0.2-0.8   c0-0.1,0.1-0.2,0.1-0.3c0.1-0.2,0.1-0.5,0.2-0.7c0-0.1,0.1-0.2,0.1-0.3c0.1-0.2,0.2-0.5,0.3-0.7c0-0.1,0.1-0.2,0.1-0.3   c0.1-0.2,0.2-0.4,0.3-0.6c0.1-0.1,0.1-0.2,0.2-0.3c0.1-0.2,0.2-0.4,0.3-0.6c0.1-0.1,0.1-0.2,0.2-0.3c0.1-0.2,0.2-0.4,0.3-0.6   c0.1-0.1,0.2-0.2,0.2-0.3c0.1-0.2,0.2-0.3,0.4-0.5c0.1-0.1,0.2-0.2,0.3-0.3c0.1-0.2,0.3-0.3,0.4-0.5c0.1-0.1,0.2-0.2,0.3-0.3   c0.1-0.1,0.3-0.3,0.4-0.4c0.1-0.1,0.2-0.2,0.3-0.3c0.1-0.1,0.3-0.3,0.4-0.4c0.1-0.1,0.3-0.2,0.4-0.3c0.1-0.1,0.3-0.2,0.4-0.4   c0.1-0.1,0.3-0.2,0.4-0.3c0.1-0.1,0.3-0.2,0.4-0.3c0.1-0.1,0.3-0.2,0.4-0.3c0.2-0.1,0.4-0.2,0.5-0.3l0,0c0,0,0.1,0,0.1,0   c0.1,0,0.2-0.1,0.3-0.2c5-2.8,11.2-2.8,16.2,0c0.1,0,0.1,0.1,0.2,0.1c0,0,0,0,0,0c0,0,0,0,0,0c0,0,0,0,0,0c0.1,0.1,0.2,0.1,0.3,0.2   c4.9,2.9,7.9,8.2,8,13.9c0,0.1,0,0.2,0,0.4C80.7,64,80.7,64,80.7,64.1C80.7,64.1,80.7,64.1,80.7,64.1z M72.3,87.5   c0,0.1-0.1,0.1-0.1,0.2c-0.6,1.2-1.8,1.9-3.4,2.8c-0.5,0.3-1,0.6-1.5,0.9v0c0,0-0.1,0.1-0.1,0.1c0,0,0,0,0,0c0,0,0,0,0,0   c-0.1,0.1-0.2,0.1-0.3,0.2c0,0-0.2,0.1-0.3,0.2c-1,0.7-1.8,1.3-2.6,2c-0.7-0.7-1.5-1.3-2.3-1.8c0,0,0,0,0,0   c-0.1-0.1-0.2-0.2-0.3-0.2l-0.6-0.4c-0.5-0.3-1-0.6-1.5-0.9c-1.5-0.9-2.7-1.6-3.4-2.8c0-0.1-0.1-0.2-0.1-0.3   c-0.4-1-0.5-2.1-0.3-3.2c0-0.2,0.1-0.4,0.2-0.5c0,0,0.1,0,0.1,0c0.6,0.3,1.2,0.5,1.8,0.7c0.1,0,0.1,0,0.2,0.1   c1.3,0.4,2.7,0.7,4.1,0.8c0,0,0.1,0,0.1,0c0.7,0.1,1.4,0.1,2.1,0.1c0.7,0,1.4,0,2.1-0.1c0,0,0.1,0,0.1,0c1.4-0.1,2.7-0.4,4-0.8   c0.1,0,0.1,0,0.2-0.1c0.6-0.2,1.2-0.4,1.8-0.7c0,0,0.1,0,0.1,0c0.1,0.2,0.1,0.3,0.2,0.5c0,0,0,0,0,0.1c0,0.1,0,0.1,0,0.2   c0.2,0.7,0.1,1.5,0,2.2c-0.1,0.3-0.2,0.5-0.3,0.8C72.3,87.5,72.3,87.4,72.3,87.5z M68.8,37.4c1.5,0.9,2.7,1.6,3.4,2.8   c0,0.1,0.1,0.2,0.1,0.3c0.4,1,0.5,2.1,0.3,3.2c0,0.2-0.1,0.4-0.2,0.6c-5.3-2.3-11.5-2.3-16.8,0c-0.1-0.2-0.1-0.4-0.2-0.6   c-0.3-1.1-0.2-2.2,0.3-3.3c0-0.1,0.1-0.1,0.1-0.2c0.6-1.2,1.8-1.9,3.4-2.8c0.5-0.3,1-0.6,1.7-1l0.3-0.2c0.2-0.1,0.4-0.2,0.5-0.4   c0.8-0.6,1.6-1.2,2.3-1.8c0.8,0.7,1.6,1.4,2.6,2c0,0,0.4,0.3,0.4,0.3c0,0,0,0,0,0c0,0,0,0,0.1,0.1c0,0,0.1,0.1,0.2,0.1v0   C67.8,36.9,68.3,37.2,68.8,37.4z M64,20.2c2.3,2.7,5.1,5.1,8.5,7.3c-0.8,0.2-1.5,0.5-2.3,1c-1,0.7-1.9,1.5-2.6,2.4   c-0.5-0.4-0.9-0.8-1.3-1.2L65.7,29c-0.9-1-2.6-1-3.5,0l-0.6,0.7c-0.2,0.3-0.5,0.5-0.8,0.8c-0.6-0.7-1.4-1.4-2.3-2   c-0.9-0.6-1.9-0.9-2.8-1.1C59,25.3,61.8,22.9,64,20.2z M42.9,36.9c0.2-0.4,0.5-0.8,0.7-1.3c0.1-0.2,0.2-0.4,0.3-0.5   c0.7-1.4,1.3-2.7,1.6-3.9c1.3,0.3,2.7,0.5,4.4,0.5c0,0,0.1,0,0.1,0c0,0,0,0,0,0c0,0,0,0,0,0c2.5,0.1,4.6-0.2,6.1,0.7   c0.3,0.2,0.7,0.5,0.9,0.8c0,0-0.1,0-0.1,0.1c-1.8,1-3.9,2.2-5.2,4.6c-0.2,0.3-0.3,0.5-0.4,0.8c-0.3,0.7-0.5,1.4-0.6,2.1   c0,0-0.1,0-0.1,0c-0.3-0.1-0.6-0.2-0.9-0.3c-0.1,0-0.2,0-0.3-0.1c-0.3-0.1-0.7-0.1-1-0.2c0,0,0,0,0,0c-0.2,0-0.5,0-0.7-0.1   c-0.3,0-0.6,0-0.9,0c-0.3,0-0.5,0.1-0.7,0.1c0,0-0.1,0-0.1,0c-0.3,0-0.5,0.1-0.8,0.2c0,0,0,0,0,0c-1.3,0.4-2.5,1-3.5,1.6   c-0.1-0.4-0.2-0.8-0.2-1.2C41.3,39.7,41.9,38.7,42.9,36.9z M41.2,47.8c0.1-0.1,0.3-0.1,0.4-0.2c0.1,0,0.2-0.1,0.2-0.1   c0.5-0.3,1-0.6,1.5-0.9c1.5-0.9,2.8-1.6,4.1-1.5c0,0,0.2,0,0.3,0c0.1,0,0.1,0,0.2,0c1.1,0.1,2,0.6,2.8,1.4c0.1,0.1,0.3,0.3,0.4,0.4   c0,0-0.1,0.1-0.1,0.1c-0.5,0.4-1,0.8-1.4,1.2c-0.1,0.1-0.2,0.2-0.3,0.3c-0.4,0.4-0.9,0.8-1.3,1.3c0,0-0.1,0.1-0.1,0.1   c-0.4,0.5-0.8,1-1.2,1.5c-0.1,0.1-0.2,0.2-0.3,0.4c-0.4,0.5-0.7,1-1,1.6c-0.1,0.1-0.1,0.2-0.1,0.3c-0.3,0.5-0.5,1-0.8,1.5   c-0.1,0.1-0.1,0.2-0.2,0.3c-0.3,0.6-0.5,1.1-0.7,1.7c0,0.1-0.1,0.3-0.1,0.4c-0.2,0.6-0.4,1.2-0.5,1.7c0,0,0,0.1,0,0.1   c-0.1,0.6-0.2,1.2-0.3,1.9c0,0.1,0,0.2,0,0.2c-0.2,0-0.4-0.1-0.6-0.1c-1-0.3-2-0.9-2.7-1.9c-0.1-0.1-0.1-0.2-0.1-0.2   c-0.7-1.1-0.7-2.5-0.7-4.3c0-0.6,0-1.2,0-1.7c0-0.2,0-0.5,0-0.7c0,0,0-0.1,0-0.1c-0.1-1.1-0.2-2.2-0.5-3.3   C39.1,48.7,40.2,48.3,41.2,47.8z M37,38.2c-0.3,0.9-0.5,1.9-0.4,3c0,1.1,0.3,2.1,0.6,3.1c-0.6,0.2-1.1,0.4-1.7,0.5L34.6,45   c-0.6,0.1-1.2,0.5-1.5,1.1c-0.3,0.6-0.4,1.3-0.2,1.9l0.3,0.9c0.1,0.5,0.3,1,0.4,1.4c-0.9,0.2-1.9,0.5-2.7,1   c-1.1,0.6-1.9,1.3-2.6,2.1c-0.1-4.1-0.8-7.9-2-11.3C29.7,41.5,33.4,40.2,37,38.2z M37,89.7c-3.6-2-7.3-3.3-10.9-3.9   c1.2-3.4,1.9-7.1,2-11.3c0.7,0.8,1.5,1.5,2.6,2.1c0.8,0.4,1.8,0.7,2.7,0.9c-0.1,0.5-0.2,1-0.4,1.5L32.9,80   c-0.2,0.6-0.1,1.3,0.2,1.9c0.3,0.6,0.9,1,1.5,1.1l0.8,0.2c0.6,0.1,1.2,0.3,1.7,0.5c-0.4,1-0.6,2-0.6,3.1   C36.5,87.8,36.7,88.8,37,89.7z M37.2,64.1c-0.2,0.2-0.4,0.4-0.6,0.6c-0.1,0.1-0.1,0.1-0.2,0.2c-0.2,0.2-0.4,0.5-0.6,0.8   c-0.2,0.2-0.3,0.4-0.5,0.7c-0.2,0.3-0.3,0.6-0.5,0.9c0,0.1-0.1,0.1-0.1,0.2c-0.1,0.2-0.2,0.4-0.3,0.6c0,0.1-0.1,0.2-0.1,0.3   c-0.1,0.2-0.1,0.4-0.2,0.6c0,0.1,0,0.2-0.1,0.3c0,0.2-0.1,0.3-0.1,0.5c0,0.1,0,0.2,0,0.4c0,0.2,0,0.3-0.1,0.5c0,0.1,0,0.3,0,0.4   c0,0.1,0,0.3,0,0.4c0,0.2,0,0.3,0,0.5c0,0.1,0,0.2,0,0.3c0,0.2,0,0.5,0,0.7c-0.3-0.1-0.6-0.2-0.9-0.4c-1.2-0.6-1.9-1.7-2.8-3.4   c-0.1-0.2-0.3-0.5-0.4-0.7c-0.2-0.3-0.4-0.6-0.6-0.9c0,0-0.1-0.1-0.1-0.1c-0.8-1.3-1.7-2.4-2.6-3.4c0.9-1,1.7-2.1,2.6-3.4   c0,0,0.1-0.1,0.1-0.1c0.2-0.3,0.4-0.6,0.6-0.9c0.1-0.2,0.3-0.5,0.5-0.8c0.8-1.5,1.5-2.6,2.7-3.2c0.3-0.1,0.6-0.3,0.9-0.4   c0,0.2,0,0.5,0,0.7c0,0.1,0,0.2,0,0.3c0,0.2,0,0.3,0,0.5c0,0.1,0,0.3,0,0.4c0,0.1,0,0.3,0,0.4c0,0.2,0,0.3,0.1,0.5   c0,0.1,0,0.3,0.1,0.4c0,0.2,0.1,0.3,0.1,0.5c0,0.1,0,0.2,0.1,0.4c0,0.2,0.1,0.4,0.2,0.6c0,0.1,0.1,0.2,0.1,0.3   c0.1,0.2,0.2,0.4,0.3,0.6c0,0.1,0.1,0.2,0.1,0.3c0.1,0.3,0.3,0.6,0.5,0.9c0.1,0.2,0.3,0.4,0.4,0.5c0.2,0.3,0.4,0.6,0.7,0.8   c0.1,0.1,0.1,0.1,0.2,0.2c0.2,0.2,0.4,0.4,0.7,0.6C37.2,63.9,37.3,63.9,37.2,64.1C37.3,64,37.2,64,37.2,64.1z M41.2,80.2   c-1-0.5-2-0.9-3.1-1.2c0.2-1.1,0.4-2.2,0.5-3.3c0,0,0-0.1,0-0.1c0-0.1,0-0.1,0-0.2c0,0,0-0.1,0-0.1c0-0.1,0-0.3,0-0.3   c0-0.6,0-1.2,0-1.8c0-1.8,0-3.2,0.7-4.2c0.1-0.1,0.1-0.2,0.3-0.3c0.6-0.9,1.6-1.5,2.6-1.8c0.2,0,0.4-0.1,0.6-0.1c0,0.1,0,0.2,0,0.2   c0.1,0.6,0.2,1.3,0.3,1.9c0,0,0,0,0,0.1c0.1,0.6,0.3,1.2,0.5,1.8c0,0.1,0.1,0.2,0.1,0.4c0.2,0.6,0.4,1.2,0.7,1.8   c0,0.1,0.1,0.2,0.1,0.3c0.2,0.5,0.5,1.1,0.8,1.6c0,0.1,0.1,0.1,0.1,0.2c0.3,0.5,0.7,1.1,1,1.6c0.1,0.1,0.2,0.2,0.2,0.3   c0.4,0.5,0.8,1,1.2,1.5c0,0,0,0,0,0c0.4,0.5,0.9,0.9,1.3,1.4c0.1,0.1,0.2,0.2,0.3,0.3c0.5,0.4,1,0.8,1.5,1.2c0,0,0,0,0.1,0.1   c-0.1,0.2-0.3,0.3-0.4,0.4c-0.8,0.8-1.8,1.2-2.6,1.3c-0.1,0-0.5,0-0.6,0c-1.3,0-2.5-0.7-4.1-1.5c-0.5-0.3-1-0.6-1.3-0.7   c0,0-0.1-0.1-0.2-0.1c0,0,0,0-0.1,0c-0.1,0-0.1-0.1-0.2-0.1c0,0,0,0,0,0C41.5,80.3,41.3,80.3,41.2,80.2z M49.7,96.2   c-1.5,0.1-2.9,0.2-4.2,0.5c-0.4-1.3-0.9-2.5-1.6-3.9c-0.1-0.2-0.2-0.4-0.3-0.6c-0.2-0.4-0.5-0.8-0.8-1.3c-0.9-1.6-1.5-2.7-1.5-4   c0-0.4,0.1-0.8,0.2-1.2c0,0,0.1,0,0.1,0c0.1,0.1,0.2,0.1,0.3,0.2c0.1,0.1,0.2,0.1,0.4,0.2c0.1,0.1,0.3,0.2,0.4,0.2   c0.1,0,0.1,0.1,0.2,0.1c0.2,0.1,0.3,0.2,0.5,0.2c0.1,0,0.1,0.1,0.2,0.1c0.2,0.1,0.4,0.1,0.5,0.2c0.1,0,0.1,0.1,0.2,0.1   c0.2,0.1,0.3,0.1,0.5,0.2c0.1,0,0.2,0.1,0.3,0.1c0.2,0,0.3,0.1,0.5,0.1c0.1,0,0.3,0,0.4,0.1c0.1,0,0.3,0,0.4,0.1c0.2,0,0.3,0,0.5,0   c0.1,0,0.2,0,0.3,0c0.1,0,0.2,0,0.3,0c0.2,0,0.5,0,0.8-0.1c0,0,0,0,0,0c0.3,0,0.7-0.1,1-0.2c0.1,0,0.2,0,0.3-0.1   c0.3-0.1,0.6-0.2,0.9-0.3c0,0,0,0,0.1,0c0,0.1,0,0.1,0,0.2c0.1,0.3,0.1,0.5,0.2,0.8c0,0.1,0,0.2,0.1,0.3c0.1,0.3,0.2,0.6,0.3,0.9   c0.1,0.3,0.2,0.6,0.4,0.8c1.1,2.1,2.8,3.2,4.5,4.2c0.2,0.1,0.5,0.3,0.7,0.4c0,0,0.1,0,0.1,0.1c-0.3,0.3-0.6,0.5-0.9,0.7   C54.5,96.4,52.6,96.1,49.7,96.2z M64,107.7c-2.2-2.6-5-5-8.3-7.1c0.9-0.2,1.9-0.6,2.9-1.2c0.8-0.6,1.6-1.2,2.2-2   c0.3,0.3,0.6,0.5,0.8,0.8l0.6,0.7c0.5,0.5,1.1,0.8,1.7,0.8c0.7,0,1.3-0.3,1.7-0.8l0.6-0.7c0.4-0.4,0.8-0.8,1.3-1.2   c0.7,0.9,1.6,1.8,2.6,2.4c0.7,0.5,1.5,0.8,2.3,1C69.1,102.6,66.3,105,64,107.7z M87.5,87c0.1,1.3-0.5,2.3-1.4,3.9   c-0.3,0.4-0.5,0.9-0.8,1.4c-0.1,0.1-0.1,0.2-0.2,0.4c0,0-0.1,0.2-0.1,0.2c-0.7,1.4-1.2,2.6-1.6,3.9c-1.3-0.3-2.7-0.5-4.2-0.5   c0,0-0.3,0-0.3,0c-0.1,0-0.2,0-0.4,0c-0.1,0-0.2,0-0.3,0c-2.2-0.1-4,0.1-5.3-0.7c-0.5-0.3-0.9-0.7-1.2-1.1c0,0,0.1,0,0.1,0   c0.1-0.1,0.2-0.1,0.3-0.2c0.1-0.1,0.3-0.2,0.4-0.2c0.1-0.1,0.2-0.1,0.3-0.2c0.1-0.1,0.3-0.2,0.4-0.3c0.1-0.1,0.2-0.1,0.3-0.2   c0.1-0.1,0.3-0.2,0.4-0.3c0.1-0.1,0.2-0.1,0.3-0.2c0.1-0.1,0.3-0.2,0.4-0.3c0.1-0.1,0.2-0.1,0.3-0.2c0.1-0.1,0.3-0.3,0.4-0.4   c0.1-0.1,0.2-0.2,0.2-0.2c0.1-0.2,0.3-0.3,0.4-0.5c0.1-0.1,0.1-0.2,0.2-0.2c0.2-0.2,0.3-0.5,0.4-0.7c0,0,0-0.1,0.1-0.1   c0.2-0.3,0.3-0.5,0.4-0.8c0.1-0.3,0.2-0.6,0.3-0.9c0-0.1,0-0.2,0.1-0.2c0.1-0.3,0.1-0.6,0.2-0.8c0,0,0-0.1,0-0.1   c0.7,0.3,1.5,0.5,2.3,0.5c0,0,0,0,0,0c0.2,0,0.5,0.1,0.7,0.1c2.8,0.1,4.8-1.1,6.7-2.2c0.1,0,0.1-0.1,0.2-0.1   C87.3,85.9,87.4,86.4,87.5,87C87.5,87,87.5,87,87.5,87z M87.4,79.9c-0.2,0-0.3,0.1-0.5,0.2c-0.3,0.1-0.5,0.2-0.7,0.4   c-0.5,0.3-1,0.6-1.5,0.9c-1.5,0.9-2.7,1.6-4.1,1.5c0,0-0.2,0-0.3,0c-0.1,0-0.1,0-0.2,0c-1.1-0.1-2-0.6-2.8-1.4   c-0.1-0.1-0.3-0.3-0.4-0.4c4.6-3.5,7.7-8.8,8.4-14.5c0.2,0,0.4,0.1,0.6,0.1c1,0.3,2,0.9,2.7,1.9c0.1,0.1,0.1,0.2,0.1,0.2   c0.7,1.1,0.7,2.5,0.7,4.3c0,0.6,0,1.2,0,1.7c0,0.2,0,0.4,0,0.6c0,0.1,0,0.2,0,0.2c0.1,1.1,0.2,2.2,0.5,3.3   C89,79.2,88.2,79.6,87.4,79.9z M89.4,52.3c0,0,0,0.1,0,0.2c0,0.2,0,0.5,0,0.6c0,0.6,0,1.2,0,1.8c0,1.8,0,3.2-0.7,4.2   c-0.1,0.1-0.1,0.2-0.3,0.3c-0.6,0.9-1.6,1.5-2.6,1.8c-0.2,0.1-0.4,0.1-0.6,0.1c-0.7-5.8-3.7-11.1-8.4-14.5c0.1-0.2,0.3-0.3,0.4-0.4   c0.8-0.8,1.8-1.2,2.6-1.3c0.1,0,0.5,0,0.6,0c1.3-0.1,2.5,0.7,4.1,1.5c0.5,0.3,1,0.6,1.5,0.8c0.2,0.1,0.5,0.2,0.8,0.4   c0,0,0.1,0,0.1,0.1c0.9,0.5,1.9,0.8,2.9,1.2C89.7,50.1,89.5,51.2,89.4,52.3z M91.9,89.3c0.2-0.8,0.3-1.6,0.3-2.5   c0-1.1-0.3-2.3-0.7-3.3c0.3-0.1,0.7-0.2,1-0.3l0.9-0.2c0.6-0.1,1.2-0.5,1.5-1.1c0.3-0.6,0.4-1.3,0.2-1.9l-0.3-0.9   c-0.1-0.5-0.3-1-0.4-1.5c0.9-0.2,1.8-0.5,2.7-0.9c1.1-0.6,1.9-1.3,2.6-2.2c0.1,4.2,0.8,7.9,2,11.3C98.6,86.4,95.3,87.6,91.9,89.3z    M90.7,64c0.6-0.5,1.1-1,1.5-1.6c0.2-0.2,0.3-0.4,0.5-0.7c1.4-2.2,1.4-4.5,1.4-6.5c0.3,0.1,0.6,0.2,0.8,0.3   c1.2,0.6,1.9,1.8,2.7,3.3c0.3,0.6,0.7,1.2,1.1,1.8v0c0,0.1,0.1,0.1,0.1,0.2c0.8,1.2,1.6,2.3,2.5,3.2c-0.8,0.9-1.6,1.9-2.5,3.2   c0,0,0,0,0,0c-0.1,0.1-0.1,0.2-0.2,0.2L98.3,68c-0.2,0.4-0.5,0.8-0.7,1.1c0,0.1-0.1,0.2-0.1,0.2c-0.8,1.4-1.5,2.4-2.6,3   c-0.3,0.1-0.5,0.3-0.8,0.3c0-2.1,0-4.3-1.5-6.6c-0.1-0.2-0.3-0.4-0.4-0.5C91.8,65.1,91.3,64.5,90.7,64z M99.8,53.4   c-0.7-0.8-1.6-1.6-2.7-2.2c-0.8-0.4-1.7-0.8-2.7-0.9c0.1-0.5,0.2-1,0.4-1.5l0.3-0.9c0.2-0.6,0.1-1.3-0.2-1.9   c-0.3-0.6-0.9-1-1.5-1.1l-0.8-0.2c-0.4-0.1-0.7-0.2-1-0.3c0.4-1,0.7-2.2,0.7-3.3c0-0.9-0.1-1.7-0.3-2.5c3.3,1.7,6.7,2.8,9.9,3.4   C100.6,45.5,100,49.2,99.8,53.4z"/></g></svg>