<?xml version="1.0" ?><!DOCTYPE svg  PUBLIC '-//W3C//DTD SVG 1.0//EN'  'http://www.w3.org/TR/2001/REC-SVG-20010904/DTD/svg10.dtd'><svg enable-background="new 0 0 100 100" height="100px" id="Layer_1" version="1.0" viewBox="0 0 100 100" width="100px" fill ="white" xml:space="preserve" xmlns="http://www.w3.org/2000/svg" xmlns:xlink="http://www.w3.org/1999/xlink"><path d="M10.006,33.432c-0.001,12.941,10.485,23.427,23.426,23.431c12.948-0.004,23.43-10.489,23.43-23.431  c0-12.943-10.487-23.432-23.43-23.428L10,10.006L10.006,33.432z"/><path d="M89.99,66.569c0.003-12.939-10.485-23.431-23.421-23.431c-12.949,0-23.433,10.494-23.433,23.434  c0,12.937,10.49,23.428,23.433,23.425H90L89.99,66.569z"/><circle cx="76.667" cy="23.334" r="13.333"/><path d="M33.333,78.333c0,6.442-5.227,11.667-11.67,11.667C15.221,90,10,84.775,10,78.333c0-6.441,5.221-11.666,11.664-11.666  C28.107,66.667,33.333,71.892,33.333,78.333z"/></svg>